<?xml version="1.0" standalone="no"?>
<!DOCTYPE svg PUBLIC "-//W3C//DTD SVG 20010904//EN"
 "http://www.w3.org/TR/2001/REC-SVG-20010904/DTD/svg10.dtd">
<svg version="1.0" xmlns="http://www.w3.org/2000/svg"
 width="522.000000pt" height="522.000000pt" viewBox="0 0 522.000000 522.000000"
 preserveAspectRatio="xMidYMid meet">
<metadata>
Created by potrace 1.14, written by Peter Selinger 2001-2017
</metadata>
<g transform="translate(0.000000,522.000000) scale(0.100000,-0.100000)"
fill="#000000" stroke="none">
<path d="M2398 4504 c-7 -6 -43 -13 -85 -16 -18 -1 -33 -5 -33 -8 0 -3 -12 -5
-27 -6 -33 -1 -105 -14 -116 -21 -4 -2 -20 -7 -35 -9 -15 -3 -39 -11 -54 -19
-16 -7 -28 -9 -28 -4 0 5 -11 2 -24 -7 -14 -8 -31 -16 -38 -18 -19 -2 -128
-47 -163 -66 -16 -9 -64 -34 -105 -56 -41 -21 -81 -45 -88 -51 -7 -7 -17 -13
-21 -13 -4 0 -17 -9 -29 -20 -12 -11 -24 -20 -28 -19 -3 0 -19 -11 -35 -25
-16 -14 -33 -26 -39 -26 -5 0 -15 -9 -22 -20 -7 -11 -17 -20 -22 -20 -5 0 -22
-13 -37 -30 -16 -16 -29 -27 -29 -24 0 2 -39 -35 -87 -83 -48 -48 -86 -91 -85
-95 1 -5 -2 -8 -7 -8 -11 0 -107 -122 -104 -132 2 -5 -1 -8 -5 -8 -19 0 -207
-323 -212 -365 0 -3 -9 -25 -20 -49 -17 -40 -55 -155 -65 -196 -2 -8 -10 -40
-18 -70 -8 -30 -15 -62 -15 -70 -1 -8 -6 -37 -12 -65 -12 -55 -17 -104 -25
-239 -3 -49 -8 -93 -11 -97 -3 -5 -2 -9 3 -9 7 0 9 -54 3 -70 -1 -3 -2 -9 0
-15 4 -23 10 -84 11 -130 1 -27 7 -53 13 -57 8 -5 7 -8 -2 -8 -7 0 -10 -5 -7
-10 6 -10 11 -31 20 -87 8 -58 17 -99 27 -138 5 -22 10 -42 10 -45 0 -3 5 -14
11 -25 6 -11 11 -24 12 -30 1 -12 13 -53 25 -80 9 -23 19 -52 20 -63 1 -4 9
-16 18 -26 9 -11 11 -16 4 -12 -7 4 1 -15 18 -43 16 -28 26 -51 22 -51 -4 0 0
-6 8 -13 8 -7 16 -18 18 -26 4 -20 80 -169 92 -181 3 -3 16 -25 29 -50 13 -25
29 -52 36 -60 12 -16 26 -48 22 -53 -1 -1 8 -13 21 -27 12 -13 22 -30 22 -37
0 -7 4 -13 9 -13 5 0 11 -8 15 -17 3 -10 15 -31 26 -48 11 -16 27 -47 37 -68
10 -20 21 -37 25 -37 5 0 8 -5 8 -11 0 -6 6 -17 14 -25 8 -7 23 -25 33 -38 11
-13 45 -38 76 -56 31 -17 57 -36 57 -41 0 -5 3 -8 8 -8 17 3 31 -2 44 -14 7
-6 33 -22 58 -35 41 -20 66 -34 185 -102 106 -60 123 -69 129 -63 3 4 6 2 6
-4 0 -9 32 -29 158 -98 20 -11 44 -24 52 -29 27 -18 131 -22 160 -6 10 5 20 6
24 3 3 -3 6 -1 6 6 0 7 4 9 10 6 6 -3 10 -1 10 4 0 6 6 11 13 11 6 0 31 20 54
44 23 24 45 41 48 38 3 -3 5 0 5 7 0 6 16 26 35 43 20 17 34 33 31 35 -7 7 18
32 26 26 5 -2 13 7 19 21 7 14 16 23 20 20 5 -3 9 -1 9 4 0 5 16 25 36 45 l36
36 27 -32 c29 -35 35 -42 110 -120 29 -32 57 -57 62 -57 5 0 8 -4 6 -9 -1 -5
10 -20 26 -34 15 -14 27 -31 27 -37 0 -5 4 -10 9 -10 5 0 16 -6 23 -12 18 -17
58 -37 88 -44 61 -14 160 -3 160 18 0 5 4 7 10 3 10 -6 50 13 62 30 5 7 8 7 8
0 0 -5 4 -4 9 3 4 7 17 14 29 15 11 0 19 4 16 8 -2 4 6 11 18 15 13 4 25 10
28 13 4 6 57 36 183 104 20 12 37 25 37 29 0 5 5 6 10 3 6 -3 10 -2 10 2 0 5
18 17 40 27 22 10 40 22 40 27 0 6 4 8 9 4 5 -3 12 -1 16 5 3 5 23 17 43 27
20 9 39 20 42 23 3 4 32 22 65 40 33 18 77 51 97 74 49 53 53 58 61 76 8 16
13 25 70 116 20 34 37 67 37 73 0 6 4 11 8 11 8 0 42 64 41 76 0 3 8 13 18 22
10 9 19 24 21 32 2 8 8 18 14 21 6 4 8 11 4 17 -3 6 -2 12 3 14 13 4 71 106
71 123 0 8 4 15 8 15 9 0 88 161 84 173 -1 4 3 7 8 7 5 0 9 3 8 8 0 4 2 14 5
22 29 69 56 154 52 160 -3 5 -1 10 5 12 5 1 11 12 13 23 1 11 6 26 10 33 5 6
6 12 3 12 -3 0 -1 11 4 25 5 14 12 37 15 52 2 15 9 50 15 80 6 29 9 57 5 63
-3 5 -2 10 3 10 5 0 9 12 10 28 0 15 1 29 2 32 17 41 17 515 0 515 -1 0 -3 17
-5 38 -2 21 -6 50 -10 65 -9 36 -15 63 -20 87 -9 47 -45 165 -69 230 -15 39
-30 78 -33 88 -3 9 -10 17 -15 17 -5 0 -7 4 -4 9 6 10 -53 134 -66 139 -5 2
-6 7 -3 12 3 5 0 14 -7 22 -7 7 -24 34 -37 60 -14 26 -29 45 -33 42 -4 -3 -8
4 -8 15 0 12 -4 21 -10 21 -5 0 -10 5 -10 10 0 11 -10 24 -42 61 -10 10 -15
19 -11 19 4 0 -3 10 -15 23 -34 34 -72 81 -72 90 0 5 -4 5 -10 2 -5 -3 -10 -1
-10 4 0 12 -110 122 -186 186 -26 22 -55 48 -65 57 -9 9 -20 14 -23 10 -3 -3
-6 0 -6 6 0 6 -8 13 -19 17 -10 3 -30 16 -43 28 -33 29 -64 47 -83 47 -8 0
-15 4 -15 8 0 9 -75 54 -86 52 -4 -1 -10 2 -13 7 -7 11 -102 56 -226 108 -11
5 -24 10 -30 10 -5 1 -23 7 -38 13 -15 7 -40 15 -55 18 -15 4 -31 9 -37 13 -5
3 -19 6 -30 7 -11 1 -31 5 -45 9 -56 15 -107 25 -150 30 -25 3 -61 8 -80 11
-63 10 -350 12 -356 3 -3 -5 -13 -5 -23 1 -10 5 -21 7 -23 4z"/>
</g>
</svg>
